<svg width="243" height="38" viewBox="0 0 243 38" fill="none" xmlns="http://www.w3.org/2000/svg">
<g clip-path="url(#clip0_3647_92463)">
<rect width="242.5" height="38" fill="white"/>
<path d="M63.3791 22.356V34.8229H56.9344V23.2551C56.9344 20.7377 55.2916 19.5389 53.2065 19.5389C50.8688 19.5389 49.226 20.8575 49.226 23.7345V34.8229H42.7812V14.5043H49.226V16.4223C50.3633 14.9238 52.5116 13.9648 55.3547 13.9648C59.7145 13.9648 63.3791 16.8418 63.3791 22.356Z" fill="#333333"/>
<path d="M74.1145 20.0795V27.272C74.1145 29.0101 75.6942 29.19 78.5374 29.0101V34.5243C70.134 35.3635 67.6698 32.9659 67.6698 27.272V20.0795H64.2578V14.2057H67.6698V10.3698L74.1145 8.51172V14.2057H78.5374V20.0795H74.1145Z" fill="#333333"/>
<path d="M100.969 22.3547V34.8216H94.5243V23.2537C94.5243 20.7364 92.8815 19.5377 90.7965 19.5377C88.4586 19.5377 86.8158 20.8563 86.8158 23.7333V34.8216H80.3711V6.35156H86.8158V16.421C87.9532 14.9225 90.1014 13.9635 92.9447 13.9635C97.3043 13.9635 100.969 16.8405 100.969 22.3547Z" fill="#333333"/>
<path d="M123.84 14.5039V34.8225H117.395V32.9045C116.258 34.403 114.11 35.362 111.267 35.362C106.97 35.362 103.242 32.425 103.242 26.9707V14.5039H109.687V26.0717C109.687 28.589 111.33 29.7878 113.415 29.7878C115.753 29.7878 117.395 28.4692 117.395 25.5922V14.5039H123.84Z" fill="#333333"/>
<path d="M145.008 9.05068C145.008 7.07276 146.776 5.39453 148.861 5.39453C150.946 5.39453 152.716 7.07276 152.716 9.05068C152.716 11.0286 150.946 12.7069 148.861 12.7069C146.776 12.7069 145.008 11.0286 145.008 9.05068ZM145.639 14.5049H152.084V34.8235H145.639V14.5049Z" fill="#6300DF"/>
<path d="M176.979 14.5056V34.8242H170.534V32.9062C169.145 34.4646 166.997 35.3637 164.153 35.3637C158.529 35.3637 153.918 30.6886 153.918 24.635C153.918 18.5814 158.529 13.9062 164.153 13.9062C166.997 13.9062 169.145 14.8652 170.534 16.3637V14.4457H176.979V14.5056ZM170.534 24.695C170.534 21.6381 168.386 19.7201 165.417 19.7201C162.448 19.7201 160.299 21.6381 160.299 24.695C160.299 27.7517 162.448 29.6697 165.417 29.6697C168.386 29.6097 170.534 27.7517 170.534 24.695Z" fill="#6300DF"/>
<path d="M196.563 28.4685C196.563 33.1436 192.267 35.1215 187.654 35.1215C183.357 35.1215 180.135 33.5631 178.43 30.2666L183.99 27.2697C184.558 28.8281 185.759 29.6673 187.654 29.6673C189.171 29.6673 189.992 29.2477 189.992 28.4086C189.992 26.1909 179.441 27.3297 179.441 20.3171C179.441 15.8817 183.357 13.6641 187.844 13.6641C191.319 13.6641 194.415 15.1026 196.185 18.0395L190.688 20.8566C190.055 19.7776 189.234 19.0584 187.844 19.0584C186.706 19.0584 186.075 19.4779 186.075 20.1971C186.012 22.4749 196.563 20.9764 196.563 28.4685Z" fill="#6300DF"/>
<path d="M206.927 20.3803V27.5727C206.927 29.3109 208.506 29.4907 211.35 29.3109V34.8251C202.946 35.6642 200.482 33.2667 200.482 27.5727V20.3803H197.07V14.5065H200.482V10.6705L206.927 8.8125V14.5065H211.35V20.3803H206.927Z" fill="#6300DF"/>
<path d="M212.551 9.05068C212.551 7.07276 214.319 5.39453 216.404 5.39453C218.489 5.39453 220.259 7.07276 220.259 9.05068C220.259 11.0286 218.489 12.7069 216.404 12.7069C214.319 12.7069 212.551 11.0286 212.551 9.05068ZM213.182 14.5049H219.627V34.8235H213.182V14.5049Z" fill="#6300DF"/>
<path d="M221.461 24.6935C221.461 18.6399 226.327 13.9648 232.835 13.9648C237.005 13.9648 240.67 16.0626 242.502 19.1793L236.878 22.2961C236.12 20.8575 234.603 20.0185 232.708 20.0185C229.929 20.0185 227.844 21.9365 227.844 24.7534C227.844 27.5705 229.929 29.4885 232.708 29.4885C234.603 29.4885 236.184 28.6494 236.878 27.2109L242.502 30.2677C240.67 33.4443 237.005 35.4822 232.835 35.4822C226.327 35.4223 221.461 30.7472 221.461 24.6935Z" fill="#6300DF"/>
<path d="M135.34 29.1285L138.562 24.9329L143.427 18.5795V14.5039H127.126V20.1978H134.771L132.371 23.3745L131.928 23.9739L126.684 30.8067V34.8824H143.806V29.1884H135.34V29.1285Z" fill="#6300DF"/>
<path d="M134.833 20.1978H127.125V14.5039H139.256" fill="#FF1472"/>
<path d="M27.3541 3.89617C27.1015 5.5744 25.5218 6.77314 23.7527 6.53339C21.9835 6.29364 20.7199 4.79522 20.9094 3.11699C21.099 1.43876 22.7418 0.240019 24.511 0.479766C26.3433 0.659577 27.5438 2.21794 27.3541 3.89617Z" fill="#6300DF"/>
<path d="M30.5212 32.0649L35.7654 28.2289L40.1884 25.0523C40.2516 25.0523 40.2515 24.9923 40.3147 24.9923C41.768 23.9734 41.8944 22.0554 40.8202 20.6769C40.1884 19.8977 39.3038 19.4782 38.356 19.4782C37.661 19.4782 36.9028 19.658 36.271 20.1375C36.0813 20.3173 35.8918 20.4372 35.7023 20.6769L27.1092 26.9702L27.0461 27.0303C26.6038 27.3298 24.7715 28.4687 23.571 28.5885C22.6864 28.7684 21.7387 28.8283 20.7909 28.7085C19.8431 28.5885 18.8953 28.2888 18.1371 27.8693L29.3839 19.658L34.7546 15.7021C34.7546 15.7021 34.7546 15.7021 34.7546 15.6422C33.87 13.7841 32.5431 12.1659 30.9003 10.9072C28.8784 9.34884 26.4143 8.26997 23.6974 7.97029C20.9173 7.61067 18.2635 8.09015 15.9258 9.10908C13.9671 9.9482 12.2611 11.2069 10.871 12.8251C9.22822 14.7431 8.09091 17.0807 7.7118 19.7179C7.3327 22.2952 7.83818 24.8126 8.84912 27.0303L7.58544 27.8094L1.33023 32.5445L1.26705 32.6044C0.635206 33.0838 0.192919 33.8031 0.0665509 34.5823C-0.123001 36.2006 1.07749 37.699 2.78347 37.9387C3.66804 38.0586 4.48943 37.8189 5.12127 37.3394L12.6402 31.8852C13.9671 32.9041 15.4202 33.7431 17.1263 34.2826C18.0107 34.5823 18.9586 34.7621 19.9063 34.882C22.6864 35.2416 25.3402 34.7621 27.6779 33.7431C28.4994 33.3835 29.3207 32.964 30.0789 32.4245C30.1421 32.4245 30.2053 32.3646 30.2685 32.3047L30.5212 32.0649ZM13.9671 20.4971C14.0934 19.598 14.4094 18.699 14.8517 17.9797C15.8625 16.1217 17.7581 14.7431 19.9063 14.2637C20.7909 14.0239 21.7386 13.964 22.6864 14.0838C23.6341 14.2038 24.582 14.5035 25.3402 14.923L14.1566 23.1343C13.9038 22.2952 13.8407 21.3961 13.9671 20.4971ZM4.42625 37.5791L4.36306 37.639L4.42625 37.5791Z" fill="#FF1472"/>
<path d="M43.1524 9.41147L35.8862 14.8058C34.9385 13.0077 33.6116 11.3295 31.9688 10.0108L39.0454 4.85628C39.1718 4.79634 39.2349 4.7364 39.3613 4.67646C39.93 4.31684 40.6251 4.19698 41.3833 4.2569C43.1523 4.49666 44.3529 5.99507 44.1001 7.61338C43.9738 8.39256 43.6579 8.99192 43.1524 9.41147Z" fill="#FFBF00"/>
<path d="M14.1484 8.39029C12.2529 9.34927 10.6101 10.7278 9.28327 12.3461L3.2808 4.85401C3.15444 4.73413 3.09124 4.61425 3.02806 4.55432C2.71214 3.95495 2.52259 3.29564 2.64896 2.63634C2.83851 0.958104 4.41811 -0.180698 6.18726 -0.000886757C6.94546 0.0590502 7.57731 0.418671 8.01959 0.898167L8.08278 0.838229L14.1484 8.39029Z" fill="#23A8E2"/>
</g>
<defs>
<clipPath id="clip0_3647_92463">
<rect width="242.5" height="38" fill="white"/>
</clipPath>
</defs>
</svg>
