<svg width="38" height="39" viewBox="0 0 38 39" fill="none" xmlns="http://www.w3.org/2000/svg">
<g clip-path="url(#clip0_3647_92497)">
<path d="M0.809141 19.2731C0.80825 22.4659 1.649 25.5833 3.24767 28.3311L0.65625 37.7195L10.3391 35.2003C13.0173 36.6469 16.018 37.405 19.0672 37.4052H19.0753C29.1416 37.4052 37.3358 29.2774 37.3401 19.2874C37.342 14.4465 35.4438 9.89448 31.995 6.46977C28.5468 3.04535 23.9608 1.15846 19.0745 1.15625C9.00705 1.15625 0.813445 9.28354 0.809289 19.2731" fill="url(#paint0_linear_3647_92497)"/>
<path d="M0.158828 19.2667C0.157789 22.5743 1.02867 25.8033 2.68434 28.6495L0 38.3744L10.0301 35.7649C12.7937 37.26 15.9052 38.0483 19.0714 38.0494H19.0796C29.507 38.0494 37.9955 29.6294 38 19.2817C38.0018 14.2669 36.0353 9.55122 32.4633 6.00381C28.8908 2.45685 24.1408 0.502062 19.0796 0.5C8.65034 0.5 0.162984 8.91891 0.158828 19.2667ZM6.13195 28.1593L5.75745 27.5694C4.18312 25.0856 3.35216 22.2152 3.35335 19.2679C3.35677 10.6671 10.4111 3.66961 19.0855 3.66961C23.2863 3.67138 27.2341 5.29625 30.2035 8.24434C33.1727 11.1927 34.8065 15.112 34.8055 19.2805C34.8016 27.8814 27.7471 34.8797 19.0796 34.8797H19.0733C16.2511 34.8782 13.4832 34.1262 11.0693 32.705L10.4948 32.367L4.54278 33.9154L6.13195 28.1591V28.1593Z" fill="url(#paint1_linear_3647_92497)"/>
<path d="M14.3499 11.4191C13.9957 10.638 13.623 10.6223 13.2862 10.6086C13.0104 10.5968 12.6951 10.5977 12.3802 10.5977C12.0649 10.5977 11.5526 10.7154 11.1196 11.1845C10.6862 11.654 9.46484 12.7887 9.46484 15.0965C9.46484 17.4045 11.159 19.6349 11.3951 19.9482C11.6316 20.2609 14.6656 25.1484 19.4709 27.0287C23.4644 28.5913 24.2771 28.2805 25.1439 28.2021C26.0107 28.1241 27.941 27.0677 28.3348 25.9724C28.7289 24.8771 28.7289 23.9383 28.6108 23.7421C28.4926 23.5467 28.1773 23.4293 27.7045 23.1948C27.2316 22.9602 24.9074 21.8253 24.4741 21.6688C24.0407 21.5124 23.7255 21.4343 23.4102 21.904C23.095 22.373 22.1896 23.4293 21.9137 23.7421C21.6381 24.0557 21.3621 24.0947 20.8895 23.8601C20.4164 23.6247 18.8939 23.13 17.0876 21.5321C15.6821 20.2887 14.7333 18.7532 14.4575 18.2835C14.1817 17.8146 14.428 17.5604 14.6651 17.3266C14.8775 17.1164 15.138 16.7789 15.3746 16.5051C15.6103 16.2311 15.689 16.0356 15.8466 15.7228C16.0044 15.4097 15.9254 15.1357 15.8074 14.9011C15.689 14.6665 14.7703 12.3466 14.3499 11.4191Z" fill="white"/>
</g>
<defs>
<linearGradient id="paint0_linear_3647_92497" x1="18.9982" y1="37.7195" x2="18.9982" y2="1.15625" gradientUnits="userSpaceOnUse">
<stop stop-color="#1FAF38"/>
<stop offset="1" stop-color="#60D669"/>
</linearGradient>
<linearGradient id="paint1_linear_3647_92497" x1="19" y1="38.3744" x2="19" y2="0.5" gradientUnits="userSpaceOnUse">
<stop stop-color="#F9F9F9"/>
<stop offset="1" stop-color="white"/>
</linearGradient>
<clipPath id="clip0_3647_92497">
<rect width="38" height="38" fill="white" transform="translate(0 0.5)"/>
</clipPath>
</defs>
</svg>
