<svg width="228" height="40" viewBox="0 0 228 40" fill="none" xmlns="http://www.w3.org/2000/svg">
<g clip-path="url(#clip0_2159_48397)">
<rect width="228" height="40" fill="#6300DF"/>
<path d="M59.585 23.532V36.6551H53.5256V24.4784C53.5256 21.8286 51.9811 20.5667 50.0206 20.5667C47.8227 20.5667 46.2781 21.9547 46.2781 24.9831V36.6551H40.2188V15.2671H46.2781V17.286C47.3475 15.7087 49.3672 14.6992 52.0404 14.6992C56.1395 14.6992 59.585 17.7276 59.585 23.532Z" fill="white"/>
<path d="M69.6814 21.1375V28.7086C69.6814 30.5382 71.1666 30.7275 73.8398 30.5382V36.3426C65.9389 37.2259 63.622 34.7022 63.622 28.7086V21.1375H60.4141V14.9546H63.622V10.9168L69.6814 8.96094V14.9546H73.8398V21.1375H69.6814Z" fill="white"/>
<path d="M94.9328 23.5329V36.6559H88.8733V24.4793C88.8733 21.8294 87.3287 20.5677 85.3684 20.5677C83.1703 20.5677 81.6257 21.9557 81.6257 24.9841V36.6559H75.5664V6.6875H81.6257V17.2869C82.6951 15.7095 84.7149 14.7001 87.3882 14.7001C91.4871 14.7001 94.9328 17.7285 94.9328 23.5329Z" fill="white"/>
<path d="M116.437 15.2656V36.6536H110.377V34.6347C109.308 36.212 107.288 37.2215 104.615 37.2215C100.575 37.2215 97.0703 34.1299 97.0703 28.3886V15.2656H103.13V27.4423C103.13 30.092 104.674 31.3539 106.635 31.3539C108.833 31.3539 110.377 29.9659 110.377 26.9375V15.2656H116.437Z" fill="white"/>
<path d="M136.336 9.52826C136.336 7.44625 137.999 5.67969 139.959 5.67969C141.919 5.67969 143.584 7.44625 143.584 9.52826C143.584 11.6103 141.919 13.3769 139.959 13.3769C137.999 13.3769 136.336 11.6103 136.336 9.52826ZM136.929 15.2696H142.989V36.6576H136.929V15.2696Z" fill="white"/>
<path d="M166.397 15.2677V36.6557H160.338V34.6367C159.032 36.2771 157.012 37.2235 154.338 37.2235C149.051 37.2235 144.715 32.3023 144.715 25.9302C144.715 19.5579 149.051 14.6367 154.338 14.6367C157.012 14.6367 159.032 15.6462 160.338 17.2235V15.2046H166.397V15.2677ZM160.338 25.9932C160.338 22.7755 158.318 20.7566 155.526 20.7566C152.734 20.7566 150.715 22.7755 150.715 25.9932C150.715 29.2108 152.734 31.2298 155.526 31.2298C158.318 31.1667 160.338 29.2108 160.338 25.9932Z" fill="white"/>
<path d="M184.807 29.9664C184.807 34.8876 180.767 36.9696 176.43 36.9696C172.391 36.9696 169.361 35.3292 167.758 31.8592L172.986 28.7045C173.52 30.3449 174.649 31.2283 176.43 31.2283C177.857 31.2283 178.629 30.7867 178.629 29.9033C178.629 27.5689 168.708 28.7677 168.708 21.386C168.708 16.7172 172.391 14.3828 176.609 14.3828C179.877 14.3828 182.787 15.8971 184.451 18.9885L179.283 21.9539C178.688 20.8181 177.916 20.0611 176.609 20.0611C175.54 20.0611 174.946 20.5027 174.946 21.2597C174.887 23.6573 184.807 22.08 184.807 29.9664Z" fill="white"/>
<path d="M194.557 21.454V29.0249C194.557 30.8547 196.041 31.0439 198.715 30.8547V36.6591C190.813 37.5423 188.497 35.0187 188.497 29.0249V21.454H185.289V15.2711H188.497V11.2332L194.557 9.27734V15.2711H198.715V21.454H194.557Z" fill="white"/>
<path d="M199.844 9.52826C199.844 7.44625 201.507 5.67969 203.467 5.67969C205.427 5.67969 207.091 7.44625 207.091 9.52826C207.091 11.6103 205.427 13.3769 203.467 13.3769C201.507 13.3769 199.844 11.6103 199.844 9.52826ZM200.437 15.2696H206.497V36.6576H200.437V15.2696Z" fill="white"/>
<path d="M208.219 25.9965C208.219 19.6242 212.794 14.7031 218.912 14.7031C222.833 14.7031 226.279 16.9113 228.001 20.1921L222.714 23.4729C222.002 21.9586 220.575 21.0754 218.793 21.0754C216.18 21.0754 214.22 23.0943 214.22 26.0595C214.22 29.0249 216.18 31.0438 218.793 31.0438C220.575 31.0438 222.061 30.1606 222.714 28.6463L228.001 31.8641C226.279 35.2078 222.833 37.353 218.912 37.353C212.794 37.2899 208.219 32.3687 208.219 25.9965Z" fill="white"/>
<path d="M127.248 30.6599L130.278 26.2435L134.851 19.5558V15.2656H119.525V21.2592H126.713L124.456 24.6031L124.04 25.234L119.109 32.4264V36.7167H135.208V30.723H127.248V30.6599Z" fill="white"/>
<path d="M126.77 21.2592H119.523V15.2656H130.929" fill="white"/>
<path d="M25.7177 4.10103C25.4801 5.86759 23.9949 7.12941 22.3316 6.87705C20.6682 6.62468 19.4801 5.0474 19.6583 3.28084C19.8365 1.51428 21.3811 0.252446 23.0445 0.504812C24.7672 0.694086 25.896 2.33447 25.7177 4.10103Z" fill="white"/>
<path d="M28.6912 33.7533L33.6219 29.7155L37.7804 26.3716C37.8397 26.3716 37.8397 26.3085 37.8991 26.3085C39.2655 25.236 39.3843 23.2171 38.3744 21.766C37.7804 20.9457 36.9487 20.5041 36.0575 20.5041C35.4041 20.5041 34.6912 20.6935 34.0972 21.1981C33.9189 21.3875 33.7407 21.5136 33.5625 21.766L25.4833 28.3905L25.4239 28.4537C25.0081 28.7691 23.2853 29.9679 22.1566 30.094C21.3249 30.2833 20.4338 30.3464 19.5427 30.2203C18.6516 30.094 17.7605 29.7785 17.0476 29.3369L27.6219 20.6935L32.6715 16.5293C32.6715 16.5293 32.6715 16.5293 32.6715 16.4663C31.8398 14.5104 30.5922 12.807 29.0476 11.4821C27.1467 9.84171 24.8299 8.70605 22.2754 8.3906C19.6616 8.01205 17.1665 8.51677 14.9685 9.58933C13.1269 10.4726 11.5229 11.7975 10.216 13.5009C8.67142 15.5199 7.60211 17.9805 7.24568 20.7565C6.88924 23.4695 7.3645 26.1193 8.31498 28.4537L7.12687 29.2739L1.24568 34.2581L1.18628 34.3212C0.592215 34.8259 0.176374 35.5831 0.0575619 36.4032C-0.120656 38.1067 1.00806 39.684 2.61202 39.9363C3.4437 40.0625 4.21598 39.8101 4.81004 39.3055L11.8793 33.5641C13.1269 34.6367 14.4932 35.5199 16.0972 36.0877C16.9288 36.4032 17.82 36.5925 18.711 36.7187C21.3249 37.0972 23.82 36.5925 26.0179 35.5199C26.7903 35.1413 27.5625 34.6997 28.2754 34.1319C28.3347 34.1319 28.3942 34.0688 28.4536 34.0057L28.6912 33.7533ZM13.1269 21.5767C13.2457 20.6303 13.5428 19.684 13.9586 18.9268C14.909 16.9711 16.6913 15.5199 18.711 15.0152C19.5427 14.7628 20.4338 14.6997 21.3249 14.8259C22.2159 14.9521 23.1071 15.2676 23.82 15.7092L13.3051 24.3527C13.0674 23.4695 13.0081 22.5231 13.1269 21.5767ZM4.15657 39.5577L4.09717 39.6208L4.15657 39.5577Z" fill="white"/>
<path d="M40.5774 9.9062L33.7457 15.5844C32.8546 13.6917 31.6071 11.9251 30.0625 10.5371L36.716 5.11125C36.8348 5.04816 36.8942 4.98507 37.013 4.92197C37.5477 4.54343 38.2012 4.41725 38.9141 4.48033C40.5774 4.73271 41.7061 6.30999 41.4684 8.01347C41.3497 8.83365 41.0527 9.46456 40.5774 9.9062Z" fill="white"/>
<path d="M13.3022 8.829C11.52 9.83845 9.97549 11.2896 8.72796 12.993L3.0844 5.1066C2.9656 4.98041 2.90618 4.85423 2.84677 4.79115C2.54974 4.16023 2.37153 3.46621 2.49034 2.77221C2.66856 1.00565 4.15371 -0.193086 5.81707 -0.00381172C6.52994 0.0592798 7.12401 0.437828 7.53985 0.94256L7.59925 0.879468L13.3022 8.829Z" fill="white"/>
</g>
<defs>
<clipPath id="clip0_2159_48397">
<rect width="228" height="40" fill="white"/>
</clipPath>
</defs>
</svg>
