<svg width="22" height="24" viewBox="0 0 22 24" fill="none" xmlns="http://www.w3.org/2000/svg">
<path d="M21.3853 12C21.3853 12.8297 20.7443 13.5 19.8977 13.5H5.22776L10.2692 18.4406C10.8671 19.0266 10.8671 19.9758 10.2692 20.5617C9.96787 20.8547 9.57565 21 9.18343 21C8.79121 21 8.39995 20.8535 8.10148 20.5605L0.448422 13.0605C-0.149474 12.4746 -0.149474 11.5254 0.448422 10.9395L8.10148 3.43945C8.69938 2.85352 9.66797 2.85352 10.2659 3.43945C10.8638 4.02539 10.8638 4.97461 10.2659 5.56055L5.22776 10.5H19.8977C20.7443 10.5 21.3853 11.1703 21.3853 12Z" fill="#333333"/>
</svg>
