<svg width="23" height="30" viewBox="0 0 23 30" fill="none" xmlns="http://www.w3.org/2000/svg">
<path d="M7 15H16M7 21H16M19 28.5H4C3.20435 28.5 2.44129 28.1839 1.87868 27.6213C1.31607 27.0587 1 26.2956 1 25.5V4.5C1 3.70435 1.31607 2.94129 1.87868 2.37868C2.44129 1.81607 3.20435 1.5 4 1.5H12.379C12.7768 1.50008 13.1583 1.65818 13.4395 1.9395L21.5605 10.0605C21.8418 10.3417 21.9999 10.7232 22 11.121V25.5C22 26.2956 21.6839 27.0587 21.1213 27.6213C20.5587 28.1839 19.7956 28.5 19 28.5Z" stroke="white" stroke-width="2" stroke-linecap="round" stroke-linejoin="round"/>
</svg>
