<svg width="31" height="30" viewBox="0 0 31 30" fill="none" xmlns="http://www.w3.org/2000/svg">
<path d="M14.9438 11.2961L18.94 13.9611C19.1112 14.0753 19.2516 14.2312 19.3487 14.4126C19.4457 14.594 19.4965 14.7966 19.4965 15.0024C19.4965 15.2081 19.4457 15.4107 19.3487 15.5921C19.2516 15.7736 19.1112 15.9282 18.94 16.0424L14.9438 18.7074C14.7555 18.833 14.5367 18.9051 14.3106 18.9161C14.0846 18.9271 13.8598 18.8765 13.6603 18.7697C13.4608 18.663 13.2939 18.504 13.1777 18.3099C13.0614 18.1157 13 17.8937 13 17.6674V12.3386C12.9995 12.1121 13.0606 11.8897 13.1767 11.6952C13.2928 11.5007 13.4596 11.3414 13.6592 11.2344C13.8588 11.1273 14.0838 11.0765 14.31 11.0874C14.5363 11.0983 14.7553 11.1704 14.9438 11.2961Z" stroke="#333333" stroke-width="2" stroke-linecap="round" stroke-linejoin="round"/>
<path d="M25.8936 19.3052C26.459 17.9403 26.75 16.4774 26.75 15C26.75 12.0163 25.5647 9.15483 23.455 7.04505C21.3452 4.93526 18.4837 3.75 15.5 3.75C12.5163 3.75 9.65483 4.93526 7.54505 7.04505C5.43526 9.15483 4.25 12.0163 4.25 15C4.25 16.4774 4.54099 17.9403 5.10636 19.3052C5.67172 20.6701 6.50039 21.9103 7.54505 22.955C8.58971 23.9996 9.8299 24.8283 11.1948 25.3936C12.5597 25.959 14.0226 26.25 15.5 26.25C16.9774 26.25 18.4403 25.959 19.8052 25.3936C21.1701 24.8283 22.4103 23.9996 23.455 22.955C24.4996 21.9103 25.3283 20.6701 25.8936 19.3052Z" stroke="#333333" stroke-width="2" stroke-linecap="round" stroke-linejoin="round"/>
</svg>
