<svg width="20" height="20" viewBox="0 0 20 20" fill="none" xmlns="http://www.w3.org/2000/svg">
<path d="M5.62109 3.33458H8.50794C8.85311 3.33458 9.13294 3.6144 9.13294 3.95958C9.13294 4.27599 8.89778 4.53749 8.59278 4.57887L8.50794 4.58458H5.62109C4.62871 4.58458 3.81639 5.35554 3.75042 6.3312L3.74609 6.45958V14.3762C3.74609 15.3686 4.51706 16.181 5.49272 16.247L5.62109 16.2512H13.5384C14.5308 16.2512 15.3431 15.4803 15.409 14.5046L15.4134 14.3762V13.9615C15.4134 13.6162 15.6932 13.3365 16.0384 13.3365C16.3548 13.3365 16.6163 13.5715 16.6577 13.8766L16.6634 13.9615V14.3762C16.6634 16.0465 15.3531 17.4106 13.7044 17.4969L13.5384 17.5012H5.62109C3.95088 17.5012 2.5867 16.191 2.50043 14.5422L2.49609 14.3762V6.45958C2.49609 4.78936 3.80639 3.42519 5.45513 3.33891L5.62109 3.33458H8.50794H5.62109ZM12.0828 5.43446V3.12624C12.0828 2.60627 12.6718 2.3262 13.0719 2.61774L13.1404 2.67519L18.1359 7.46686C18.369 7.69049 18.3903 8.04967 18.1995 8.29797L18.1359 8.36888L13.1404 13.1621C12.7653 13.5221 12.1554 13.291 12.0887 12.8003L12.0828 12.7111V10.44L11.7965 10.4651C9.79678 10.6737 7.88007 11.5745 6.03439 13.1824C5.60179 13.5592 4.93252 13.2029 5.00367 12.6336C5.55766 8.20066 7.87589 5.75733 11.8333 5.45083L12.0828 5.43446V3.12624V5.43446ZM13.3328 4.59178V6.04291C13.3328 6.38809 13.0529 6.66791 12.7078 6.66791C9.47994 6.66791 7.4794 8.06469 6.61504 10.9655L6.54915 11.1977L6.84264 11.0004C8.70636 9.78221 10.6642 9.16788 12.7078 9.16788C13.0242 9.16788 13.2857 9.40305 13.327 9.70813L13.3328 9.79288V11.2453L16.8004 7.91799L13.3328 4.59178Z" fill="#ffffff"/>
</svg>
